<?xml version="1.0" encoding="utf-8"?>
<!-- Generator: Adobe Illustrator 19.2.1, SVG Export Plug-In . SVG Version: 6.00 Build 0)  -->
<svg version="1.1" id="Capa_1" xmlns="http://www.w3.org/2000/svg" xmlns:xlink="http://www.w3.org/1999/xlink" x="0px" y="0px"
	 viewBox="0 0 784.8 756" style="enable-background:new 0 0 784.8 756;" xml:space="preserve">
<style type="text/css">
	.st0{fill:url(#SVGID_1_);}
</style>
<linearGradient id="SVGID_1_" gradientUnits="userSpaceOnUse" x1="308.2449" y1="239.7464" x2="472.5308" y2="524.2979">
	<stop  offset="0" style="stop-color:#4DBEDE"/>
	<stop  offset="0.5645" style="stop-color:#2E8BBF"/>
</linearGradient>
<path class="st0" d="M559.9,109.2c-46.9,0-86.1,34.1-94.1,78.8c-131.6,37.2-234.4,143.6-266.2,277.7c-42.6,9.7-74.4,47.9-74.4,93.3
	c0,52.8,42.9,95.7,95.7,95.7c52.8,0,95.7-42.9,95.7-95.7c0-42-27.1-77.5-64.7-90.5c29-108.7,112.4-194.9,219-228.3
	c14.1,35.4,48.6,60.5,88.9,60.5c52.8,0,95.8-42.9,95.8-95.7C655.6,152.2,612.6,109.2,559.9,109.2z M265.2,559
	c0,24.4-19.8,44.2-44.3,44.2c-24.4,0-44.3-19.8-44.3-44.2c0-24.5,19.8-44.3,44.3-44.3C245.3,514.8,265.2,534.6,265.2,559z
	 M559.9,249.3c-24.4,0-44.3-19.8-44.3-44.3c0-24.5,19.9-44.3,44.3-44.3c24.5,0,44.3,19.8,44.3,44.3
	C604.1,229.5,584.3,249.3,559.9,249.3z"/>
</svg>
